<svg width="50" height="50" viewBox="0 0 50 50" fill="none" xmlns="http://www.w3.org/2000/svg">
<path d="M13.5417 16.6667C15.2676 16.6667 16.6667 15.2676 16.6667 13.5417C16.6667 11.8159 15.2676 10.4167 13.5417 10.4167C11.8158 10.4167 10.4167 11.8159 10.4167 13.5417C10.4167 15.2676 11.8158 16.6667 13.5417 16.6667Z" fill="#0F0F0F"/>
<path d="M10.4167 20.8333C10.4167 19.6827 11.3494 18.75 12.5 18.75H14.5833C15.7339 18.75 16.6667 19.6827 16.6667 20.8333V37.5C16.6667 38.6506 15.7339 39.5833 14.5833 39.5833H12.5C11.3494 39.5833 10.4167 38.6506 10.4167 37.5V20.8333Z" fill="#0F0F0F"/>
<path d="M22.9167 39.5833H25C26.1506 39.5833 27.0833 38.6506 27.0833 37.5V28.125C27.0833 25 33.3333 22.9167 33.3333 27.0833V37.5008C33.3333 38.6515 34.2661 39.5833 35.4167 39.5833H37.5C38.6506 39.5833 39.5833 38.6506 39.5833 37.5V25C39.5833 20.8333 36.4583 18.75 32.2917 18.75C28.125 18.75 27.0833 21.875 27.0833 21.875V20.8333C27.0833 19.6827 26.1506 18.75 25 18.75H22.9167C21.7661 18.75 20.8333 19.6827 20.8333 20.8333V37.5C20.8333 38.6506 21.7661 39.5833 22.9167 39.5833Z" fill="#0F0F0F"/>
<path fill-rule="evenodd" clip-rule="evenodd" d="M41.6667 2.08325C45.1186 2.08325 47.9167 4.88148 47.9167 8.33325V41.6666C47.9167 45.1185 45.1186 47.9166 41.6667 47.9166H8.33334C4.88157 47.9166 2.08334 45.1185 2.08334 41.6666V8.33325C2.08334 4.88148 4.88157 2.08325 8.33334 2.08325H41.6667ZM41.6667 6.24992C42.8173 6.24992 43.75 7.18267 43.75 8.33325V41.6666C43.75 42.8172 42.8173 43.7499 41.6667 43.7499H8.33334C7.18276 43.7499 6.25001 42.8172 6.25001 41.6666V8.33325C6.25001 7.18267 7.18276 6.24992 8.33334 6.24992H41.6667Z" fill="#0F0F0F"/>
</svg>
