<svg width="50" height="50" viewBox="0 0 50 50" fill="none" xmlns="http://www.w3.org/2000/svg">
<path fill-rule="evenodd" clip-rule="evenodd" d="M48.1494 9.36349C48.8117 6.1348 45.6404 3.45169 42.566 4.63955L4.8802 19.2C1.4469 20.5265 1.29392 25.3275 4.63578 26.8698L12.8427 30.6577L16.7468 44.322C16.9496 45.0318 17.5129 45.5814 18.2274 45.7666C18.942 45.9516 19.7012 45.745 20.2232 45.2229L26.2371 39.2089L34.6614 45.5273C37.1069 47.3612 40.6289 46.0254 41.2431 43.031L48.1494 9.36349ZM6.38186 23.0866L44.0677 8.52621L37.1614 42.1939L27.2917 34.7914C26.4623 34.1693 25.3017 34.2518 24.5685 34.985L21.9927 37.5608L22.7667 33.3043L37.9314 18.1396C38.6696 17.4016 38.7475 16.2313 38.1139 15.4019C37.4804 14.5724 36.331 14.3398 35.4248 14.8576L14.4817 26.825L6.38186 23.0866ZM17.0353 30.1648L18.2986 34.5864L18.7836 31.9187C18.8594 31.5018 19.0606 31.1179 19.3602 30.8183L23.985 26.1937L17.0353 30.1648Z" fill="#0F0F0F"/>
</svg>
